<svg width="18" height="18" viewBox="0 0 18 18" fill="none" xmlns="http://www.w3.org/2000/svg">
<path d="M17.2938 14.0546C16.8423 13.1479 16.1871 12.3242 15.3646 11.6295C14.5446 10.9329 13.5733 10.3774 12.5042 9.99385C12.4947 9.98979 12.4851 9.98776 12.4755 9.9837C13.9667 9.07048 14.9361 7.58295 14.9361 5.90465C14.9361 3.1244 12.2792 0.871796 9 0.871796C5.72077 0.871796 3.06387 3.1244 3.06387 5.90465C3.06387 7.58295 4.03328 9.07048 5.52449 9.98573C5.51492 9.98979 5.50534 9.99182 5.49577 9.99588C4.42343 10.3794 3.46121 10.9294 2.63541 11.6316C1.81371 12.3268 1.15857 13.1503 0.706172 14.0567C0.261734 14.944 0.0220377 15.8954 5.98544e-05 16.8592C-0.00057901 16.8809 0.00390188 16.9024 0.0132386 16.9226C0.0225753 16.9428 0.036579 16.9612 0.0544243 16.9767C0.0722696 16.9922 0.0935956 17.0045 0.117146 17.0129C0.140696 17.0213 0.165993 17.0257 0.191548 17.0256H1.62771C1.73303 17.0256 1.8168 16.9546 1.8192 16.8674C1.86707 15.3007 2.60908 13.8334 3.92078 12.7213C5.27795 11.5707 7.08033 10.9375 9 10.9375C10.9197 10.9375 12.722 11.5707 14.0792 12.7213C15.3909 13.8334 16.1329 15.3007 16.1808 16.8674C16.1832 16.9566 16.267 17.0256 16.3723 17.0256H17.8085C17.834 17.0257 17.8593 17.0213 17.8829 17.0129C17.9064 17.0045 17.9277 16.9922 17.9456 16.9767C17.9634 16.9612 17.9774 16.9428 17.9868 16.9226C17.9961 16.9024 18.0006 16.8809 17.9999 16.8592C17.976 15.8892 17.739 14.9455 17.2938 14.0546ZM9 9.39518C7.90134 9.39518 6.8673 9.03192 6.08938 8.37238C5.31146 7.71283 4.88301 6.83614 4.88301 5.90465C4.88301 4.97317 5.31146 4.09648 6.08938 3.43693C6.8673 2.77738 7.90134 2.41412 9 2.41412C10.0987 2.41412 11.1327 2.77738 11.9106 3.43693C12.6885 4.09648 13.117 4.97317 13.117 5.90465C13.117 6.83614 12.6885 7.71283 11.9106 8.37238C11.1327 9.03192 10.0987 9.39518 9 9.39518Z" fill="black"/>
</svg>
